<svg width="215" height="41" viewBox="0 0 215 41" fill="none" xmlns="http://www.w3.org/2000/svg">
<path d="M182.156 39.648L173.42 12.04H182.38L186.356 26.656L190.332 12.04H197.444L201.42 26.544L205.452 12.04H214.468L205.676 39.648H198.228L193.916 24.08L189.716 39.648H182.156Z" fill="white"/>
<path d="M159.051 40.2638C156.325 40.2638 153.88 39.6478 151.715 38.4158C149.587 37.1465 147.907 35.4292 146.675 33.2638C145.443 31.0612 144.827 28.5785 144.827 25.8158C144.827 23.0158 145.443 20.5332 146.675 18.3678C147.907 16.2025 149.587 14.5038 151.715 13.2718C153.88 12.0398 156.325 11.4238 159.051 11.4238C161.776 11.4238 164.203 12.0398 166.331 13.2718C168.459 14.5038 170.139 16.2025 171.371 18.3678C172.603 20.5332 173.219 23.0158 173.219 25.8158C173.219 28.5785 172.603 31.0612 171.371 33.2638C170.139 35.4292 168.459 37.1465 166.331 38.4158C164.203 39.6478 161.776 40.2638 159.051 40.2638ZM159.051 32.8718C160.283 32.8718 161.328 32.6105 162.187 32.0878C163.045 31.5278 163.68 30.7252 164.091 29.6798C164.539 28.5972 164.763 27.3092 164.763 25.8158C164.763 24.2852 164.539 23.0158 164.091 22.0078C163.68 20.9625 163.045 20.1785 162.187 19.6558C161.328 19.0958 160.283 18.8158 159.051 18.8158C157.819 18.8158 156.773 19.0958 155.915 19.6558C155.056 20.1785 154.403 20.9625 153.955 22.0078C153.507 23.0158 153.283 24.2852 153.283 25.8158C153.283 27.3092 153.507 28.5972 153.955 29.6798C154.403 30.7252 155.056 31.5278 155.915 32.0878C156.773 32.6105 157.819 32.8718 159.051 32.8718Z" fill="white"/>
<path d="M138.613 40.264C136.672 40.264 135.011 39.6667 133.629 38.472C132.248 37.24 131.557 35.2987 131.557 32.648V7.224C130.848 7.03733 130.232 6.92533 129.709 6.888C129.187 6.81333 128.683 6.776 128.197 6.776C126.405 6.776 125.136 7.168 124.389 7.952C123.643 8.736 123.269 9.55733 123.269 10.416V12.04H127.917V18.592H123.269V39.648H114.813V18.592H110.221V12.04H114.813V10.248C114.813 8.19467 115.411 6.40266 116.605 4.872C117.837 3.34133 119.443 2.14666 121.421 1.288C123.4 0.429333 125.509 0 127.749 0C130.4 0 132.64 0.261334 134.469 0.784C136.299 1.30667 138.165 2.10933 140.069 3.192V31.136C140.069 32.0693 140.592 32.536 141.637 32.536C141.899 32.536 142.16 32.5173 142.421 32.48C142.72 32.4053 143.056 32.312 143.429 32.2V39.368C142.571 39.704 141.693 39.928 140.797 40.04C139.939 40.1893 139.211 40.264 138.613 40.264Z" fill="white"/>
<path d="M86.7559 39.6478V12.0398H95.2679V19.5998H94.2599C94.2972 18.0318 94.6892 16.6318 95.4359 15.3998C96.2199 14.1678 97.2092 13.1972 98.4039 12.4878C99.6359 11.7785 100.905 11.4238 102.212 11.4238C103.183 11.4238 104.097 11.5732 104.956 11.8718C105.852 12.1332 106.785 12.5812 107.756 13.2158L103.724 20.8318C103.351 20.5705 102.828 20.3465 102.156 20.1598C101.484 19.9358 100.812 19.8238 100.14 19.8238C99.5052 19.8238 98.8892 19.9358 98.2919 20.1598C97.7319 20.3838 97.2279 20.7385 96.7799 21.2238C96.3692 21.6718 96.0332 22.2505 95.7719 22.9598C95.5852 23.4825 95.4359 24.1545 95.3239 24.9758C95.2492 25.7598 95.2119 26.9358 95.2119 28.5038V39.6478H86.7559Z" fill="white"/>
<path d="M70.8523 40.2638C68.3136 40.2638 66.1483 39.8718 64.3563 39.0878C62.5643 38.2665 61.1083 37.1838 59.9883 35.8398C58.8683 34.4585 58.0469 32.9278 57.5243 31.2478C57.0389 29.5305 56.7963 27.7758 56.7963 25.9838C56.7963 24.2665 57.0389 22.5492 57.5243 20.8318C58.0469 19.1145 58.8309 17.5465 59.8763 16.1278C60.9589 14.7092 62.3589 13.5705 64.0763 12.7118C65.8309 11.8532 67.9403 11.4238 70.4043 11.4238C72.5696 11.4238 74.4736 11.7972 76.1163 12.5438C77.7589 13.2532 79.1216 14.2612 80.2043 15.5678C81.3243 16.8745 82.1643 18.4238 82.7243 20.2158C83.2843 22.0078 83.5643 23.9678 83.5643 26.0958C83.5643 26.4692 83.5456 26.8612 83.5083 27.2718C83.5083 27.6825 83.4709 28.1865 83.3963 28.7838H65.2523C65.4763 30.2772 66.1669 31.3598 67.3243 32.0318C68.5189 32.7038 69.8816 33.0398 71.4123 33.0398C72.7563 33.0398 74.1376 32.8158 75.5563 32.3678C76.9749 31.8825 78.2069 31.2292 79.2523 30.4078L82.8363 36.3438C81.3803 37.3145 80.0549 38.0985 78.8603 38.6958C77.6656 39.2558 76.4336 39.6478 75.1643 39.8718C73.9323 40.1332 72.4949 40.2638 70.8523 40.2638ZM75.2763 24.5838C75.3509 24.2852 75.4069 23.9865 75.4443 23.6878C75.5189 23.3892 75.5563 23.1092 75.5563 22.8478C75.5563 22.1385 75.4256 21.5225 75.1643 20.9998C74.9029 20.4398 74.5296 19.9732 74.0443 19.5998C73.5963 19.2265 73.0736 18.9465 72.4763 18.7598C71.8789 18.5358 71.2443 18.4238 70.5723 18.4238C69.3403 18.4238 68.3323 18.6478 67.5483 19.0958C66.8016 19.5438 66.2416 20.0852 65.8683 20.7198C65.4949 21.3545 65.2523 21.9705 65.1403 22.5678H78.0763L75.2763 24.5838Z" fill="white"/>
<path d="M39.1891 39.648L27.9331 12.04H37.1731L42.6051 28.616L48.2051 12.04H57.2771L46.0771 39.648H39.1891Z" fill="white"/>
<path d="M14.224 40.2638C11.4987 40.2638 9.05333 39.6478 6.888 38.4158C4.76 37.1465 3.08 35.4292 1.848 33.2638C0.616 31.0612 0 28.5785 0 25.8158C0 23.0158 0.616 20.5332 1.848 18.3678C3.08 16.2025 4.76 14.5038 6.888 13.2718C9.05333 12.0398 11.4987 11.4238 14.224 11.4238C16.9493 11.4238 19.376 12.0398 21.504 13.2718C23.632 14.5038 25.312 16.2025 26.544 18.3678C27.776 20.5332 28.392 23.0158 28.392 25.8158C28.392 28.5785 27.776 31.0612 26.544 33.2638C25.312 35.4292 23.632 37.1465 21.504 38.4158C19.376 39.6478 16.9493 40.2638 14.224 40.2638ZM14.224 32.8718C15.456 32.8718 16.5013 32.6105 17.36 32.0878C18.2187 31.5278 18.8533 30.7252 19.264 29.6798C19.712 28.5972 19.936 27.3092 19.936 25.8158C19.936 24.2852 19.712 23.0158 19.264 22.0078C18.8533 20.9625 18.2187 20.1785 17.36 19.6558C16.5013 19.0958 15.456 18.8158 14.224 18.8158C12.992 18.8158 11.9467 19.0958 11.088 19.6558C10.2293 20.1785 9.576 20.9625 9.128 22.0078C8.68 23.0158 8.456 24.2852 8.456 25.8158C8.456 27.3092 8.68 28.5972 9.128 29.6798C9.576 30.7252 10.2293 31.5278 11.088 32.0878C11.9467 32.6105 12.992 32.8718 14.224 32.8718Z" fill="white"/>
</svg>
