<svg width="256" height="256" viewBox="0 0 256 256" fill="none" xmlns="http://www.w3.org/2000/svg">
<g clip-path="url(#clip0_236_39864)">
<rect width="256" height="256" fill="white"/>
<rect width="1138" height="711.25" transform="translate(-441)" fill="#070814"/>
<g opacity="0.53" clip-path="url(#clip1_236_39864)">
<rect width="1138" height="711.25" transform="translate(-441)" fill="#070814"/>
<g clip-path="url(#clip2_236_39864)">
<circle opacity="0.2" cx="129.062" cy="269.66" r="248.742" stroke="white" stroke-opacity="0.85" stroke-width="0.935998"/>
<line opacity="0.2" x1="13.6909" y1="-54.7915" x2="13.6909" y2="733.115" stroke="white" stroke-opacity="0.7" stroke-width="0.935998"/>
<line opacity="0.2" x1="130.049" y1="-54.5291" x2="130.049" y2="721.524" stroke="white" stroke-opacity="0.7" stroke-width="0.935998"/>
<line opacity="0.2" x1="244.452" y1="-54.7915" x2="244.452" y2="733.115" stroke="white" stroke-opacity="0.7" stroke-width="0.935998"/>
<line opacity="0.2" x1="-440.762" y1="153.743" x2="697.238" y2="153.743" stroke="white" stroke-opacity="0.7" stroke-width="0.935998"/>
<line opacity="0.2" x1="455.744" y1="-54.4606" x2="-378.79" y2="780.073" stroke="white" stroke-opacity="0.7" stroke-width="0.935998"/>
<line opacity="0.2" x1="-196.473" y1="-55.1224" x2="646.753" y2="788.104" stroke="white" stroke-opacity="0.7" stroke-width="0.935998"/>
</g>
<g opacity="0.67" filter="url(#filter0_f_236_39864)">
<path d="M-100.478 128.327H-109.874V249.901H74.8943C92.1185 249.901 98.3818 268.701 82.7235 274.967L46.7095 288.754C-1.83121 307.554 -50.3719 317.58 -100.478 317.58H-109.874V439.154H70.197C87.4211 439.154 93.6845 457.953 78.0262 464.22L40.4463 478.007C-4.96278 495.553 -53.5035 504.327 -100.478 504.327H-109.874V625.9H70.197L90.5526 605.847C178.239 524.38 280.018 481.767 386.495 481.767H394.324V360.194H214.253C197.029 360.194 190.766 341.394 206.424 335.127L244.004 321.34C289.413 303.794 337.954 295.02 384.929 295.02H392.758V173.447H209.556C192.332 173.447 186.068 154.647 201.727 148.381L237.741 134.594C286.281 115.794 334.823 105.768 384.929 105.768H392.758V-15.8057H212.688L192.332 4.24771C107.777 85.7142 4.43221 128.327 -100.478 128.327Z" fill="url(#paint0_linear_236_39864)"/>
</g>
<g opacity="0.11" filter="url(#filter1_f_236_39864)">
<path d="M-48.4904 137.691H-55.3445V248.498H79.4514C92.0172 248.498 96.5865 265.634 85.1631 271.345L58.8895 283.911C23.4769 301.046 -11.9355 310.185 -48.4904 310.185H-55.3445V420.992H76.0246C88.5903 420.992 93.1597 438.127 81.7363 443.838L54.3202 456.404C21.1923 472.397 -14.2202 480.393 -48.4904 480.393H-55.3445V591.2H76.0246L90.8748 572.923C154.846 498.671 229.098 459.831 306.777 459.831H312.489V349.024H181.12C168.554 349.024 163.984 331.889 175.408 326.177L202.824 313.612C235.952 297.619 271.365 289.623 305.635 289.623H311.347V178.816H177.693C165.127 178.816 160.558 161.681 171.981 155.969L198.255 143.403C233.667 126.268 269.08 117.129 305.635 117.129H311.347V6.32227H179.978L165.127 24.5998C103.441 98.8519 28.0464 137.691 -48.4904 137.691Z" fill="url(#paint1_linear_236_39864)"/>
</g>
<g opacity="0.11" filter="url(#filter2_f_236_39864)">
<path d="M-27.2969 168.744H-33.2167V264.416H83.2045C94.0573 264.416 98.0038 279.21 88.1376 284.142L65.4454 294.991C34.8602 309.786 4.27497 317.676 -27.2969 317.676H-33.2167V413.348H80.2447C91.0975 413.348 95.044 428.142 85.1778 433.074L61.499 443.923C32.887 457.731 2.30173 464.635 -27.2969 464.635H-33.2167V560.307H80.2447L93.0707 544.526C148.321 480.416 212.452 446.882 279.542 446.882H284.475V351.21H171.014C160.161 351.21 156.214 336.416 166.081 331.484L189.76 320.635C218.372 306.827 248.957 299.923 278.556 299.923H283.489V204.251H168.054C157.201 204.251 153.255 189.457 163.121 184.525L185.813 173.676C216.398 158.881 246.984 150.991 278.556 150.991H283.489V55.3193H170.027L157.201 71.1003C103.923 135.21 38.8067 168.744 -27.2969 168.744Z" fill="url(#paint2_linear_236_39864)"/>
</g>
<g opacity="0.5">
<g style="mix-blend-mode:overlay">
<circle cx="93.1176" cy="197.308" r="1.11729" transform="rotate(-156.571 93.1176 197.308)" fill="white"/>
</g>
<circle cx="84.1121" cy="174.532" r="0.558936" transform="rotate(-156.571 84.1121 174.532)" fill="white"/>
<g style="mix-blend-mode:overlay">
<circle cx="49.9389" cy="208.429" r="0.558936" transform="rotate(-156.571 49.9389 208.429)" fill="white"/>
</g>
<circle cx="50.899" cy="107.764" r="0.558936" transform="rotate(-156.571 50.899 107.764)" fill="white"/>
<g style="mix-blend-mode:overlay">
<circle cx="61.9705" cy="135.709" r="0.558936" transform="rotate(-156.571 61.9705 135.709)" fill="white"/>
</g>
<g style="mix-blend-mode:overlay">
<circle cx="59.2193" cy="163.132" r="1.11729" transform="rotate(-156.571 59.2193 163.132)" fill="white"/>
</g>
<circle cx="51.2826" cy="187.078" r="1.11729" transform="rotate(-156.571 51.2826 187.078)" fill="white"/>
<g style="mix-blend-mode:overlay">
<circle cx="33.827" cy="128.995" r="1.11729" transform="rotate(-156.571 33.827 128.995)" fill="white"/>
</g>
<g style="mix-blend-mode:overlay">
<circle cx="94.7734" cy="149.927" r="0.558936" transform="rotate(-156.571 94.7734 149.927)" fill="white"/>
</g>
<circle cx="68.3949" cy="143.364" r="0.558936" transform="rotate(-156.571 68.3949 143.364)" fill="white"/>
<circle cx="42.6043" cy="158.9" r="0.558936" transform="rotate(-156.571 42.6043 158.9)" fill="white"/>
<g style="mix-blend-mode:overlay">
<circle cx="58.8257" cy="187.927" r="0.558936" transform="rotate(-156.571 58.8257 187.927)" fill="white"/>
</g>
<g style="mix-blend-mode:overlay">
<circle cx="99.3618" cy="129.108" r="1.13275" transform="rotate(-90 99.3618 129.108)" fill="white"/>
</g>
<g style="mix-blend-mode:overlay">
<circle cx="116.923" cy="111.546" r="0.56667" transform="rotate(-90 116.923 111.546)" fill="white"/>
</g>
<g style="mix-blend-mode:overlay">
<circle cx="71.6087" cy="93.4226" r="0.56667" transform="rotate(-90 71.6087 93.4226)" fill="white"/>
</g>
<g style="mix-blend-mode:overlay">
<circle cx="107.858" cy="48.115" r="0.56667" transform="rotate(-90 107.858 48.115)" fill="white"/>
</g>
<circle cx="144.107" cy="75.2981" r="0.56667" transform="rotate(-90 144.107 75.2981)" fill="white"/>
<g style="mix-blend-mode:overlay">
<circle cx="117.487" cy="83.7969" r="1.13275" transform="rotate(-90 117.487 83.7969)" fill="white"/>
</g>
<g style="mix-blend-mode:overlay">
<circle cx="81.2377" cy="56.6116" r="1.13275" transform="rotate(-90 81.2377 56.6116)" fill="white"/>
</g>
<circle cx="139.007" cy="46.4149" r="1.13275" transform="rotate(-90 139.007 46.4149)" fill="white"/>
<circle cx="144.105" cy="111.547" r="0.56667" transform="rotate(-90 144.105 111.547)" fill="white"/>
<circle cx="139.575" cy="84.362" r="0.56667" transform="rotate(-90 139.575 84.362)" fill="white"/>
<g style="mix-blend-mode:overlay">
<circle cx="80.6717" cy="66.24" r="0.56667" transform="rotate(-90 80.6717 66.24)" fill="white"/>
</g>
<g style="mix-blend-mode:overlay">
<circle cx="94.2645" cy="93.4238" r="0.56667" transform="rotate(-90 94.2645 93.4238)" fill="white"/>
</g>
<circle cx="208.038" cy="12.7" r="1.23613" transform="rotate(-151.577 208.038 12.7)" fill="white"/>
<circle cx="166.221" cy="24.7749" r="0.618386" transform="rotate(-151.577 166.221 24.7749)" fill="white"/>
<circle cx="144.838" cy="1.95772" r="0.618386" transform="rotate(-151.577 144.838 1.95772)" fill="white"/>
<circle cx="177.988" cy="3.03243" r="0.618386" transform="rotate(-151.577 177.988 3.03243)" fill="white"/>
<g style="mix-blend-mode:overlay">
<circle cx="230.693" cy="154.084" r="1.37027" transform="rotate(149.552 230.693 154.084)" fill="white"/>
</g>
<g style="mix-blend-mode:overlay">
<circle cx="201.622" cy="146.535" r="0.685488" transform="rotate(149.552 201.622 146.535)" fill="white"/>
</g>
<g style="mix-blend-mode:overlay">
<circle cx="210.494" cy="204.898" r="0.685488" transform="rotate(149.552 210.494 204.898)" fill="white"/>
</g>
<g style="mix-blend-mode:overlay">
<circle cx="141.023" cy="194.872" r="0.685488" transform="rotate(149.552 141.023 194.872)" fill="white"/>
</g>
<g style="mix-blend-mode:overlay">
<circle cx="147.154" cy="140.406" r="0.685488" transform="rotate(149.552 147.154 140.406)" fill="white"/>
</g>
<g style="mix-blend-mode:overlay">
<circle cx="172.332" cy="162.957" r="1.37027" transform="rotate(149.552 172.332 162.957)" fill="white"/>
</g>
<circle cx="146.866" cy="217.832" r="1.37027" transform="rotate(149.552 146.866 217.832)" fill="white"/>
<g style="mix-blend-mode:overlay">
<circle cx="140.5" cy="163.427" r="1.37027" transform="rotate(149.552 140.5 163.427)" fill="white"/>
</g>
<g style="mix-blend-mode:overlay">
<circle cx="184.954" cy="118.186" r="0.685488" transform="rotate(149.552 184.954 118.186)" fill="white"/>
</g>
<g style="mix-blend-mode:overlay">
<circle cx="159.382" cy="139.575" r="0.685488" transform="rotate(149.552 159.382 139.575)" fill="white"/>
</g>
<circle cx="170.841" cy="190.67" r="0.685488" transform="rotate(149.552 170.841 190.67)" fill="white"/>
<g style="mix-blend-mode:overlay">
<circle cx="196.608" cy="181.274" r="0.685488" transform="rotate(149.552 196.608 181.274)" fill="white"/>
</g>
</g>
</g>
<path d="M195.624 145.743L187.682 120.643H195.828L199.443 133.931L203.057 120.643H209.523L213.138 133.829L216.803 120.643H225L217.007 145.743H210.236L206.316 131.589L202.497 145.743H195.624Z" fill="white"/>
<path d="M174.619 146.303C172.141 146.303 169.918 145.742 167.949 144.622C166.015 143.468 164.487 141.907 163.367 139.939C162.247 137.936 161.687 135.679 161.687 133.167C161.687 130.622 162.247 128.365 163.367 126.396C164.487 124.428 166.015 122.883 167.949 121.763C169.918 120.643 172.141 120.083 174.619 120.083C177.096 120.083 179.302 120.643 181.237 121.763C183.172 122.883 184.699 124.428 185.819 126.396C186.939 128.365 187.499 130.622 187.499 133.167C187.499 135.679 186.939 137.936 185.819 139.939C184.699 141.907 183.172 143.468 181.237 144.622C179.302 145.742 177.096 146.303 174.619 146.303ZM174.619 139.582C175.739 139.582 176.689 139.345 177.47 138.869C178.25 138.36 178.827 137.631 179.201 136.68C179.608 135.696 179.812 134.525 179.812 133.167C179.812 131.776 179.608 130.622 179.201 129.705C178.827 128.755 178.25 128.042 177.47 127.567C176.689 127.058 175.739 126.804 174.619 126.804C173.499 126.804 172.548 127.058 171.768 127.567C170.987 128.042 170.393 128.755 169.986 129.705C169.578 130.622 169.375 131.776 169.375 133.167C169.375 134.525 169.578 135.696 169.986 136.68C170.393 137.631 170.987 138.36 171.768 138.869C172.548 139.345 173.499 139.582 174.619 139.582Z" fill="white"/>
<path d="M156.038 146.303C154.273 146.303 152.763 145.76 151.507 144.673C150.251 143.553 149.623 141.789 149.623 139.379V116.265C148.979 116.095 148.419 115.994 147.943 115.96C147.468 115.892 147.01 115.858 146.569 115.858C144.94 115.858 143.786 116.214 143.107 116.927C142.428 117.64 142.089 118.386 142.089 119.167V120.643H146.314V126.6H142.089V145.743H134.401V126.6H130.226V120.643H134.401V119.014C134.401 117.148 134.944 115.518 136.03 114.127C137.15 112.735 138.61 111.649 140.409 110.868C142.207 110.088 144.125 109.698 146.162 109.698C148.571 109.698 150.608 109.935 152.271 110.41C153.934 110.885 155.631 111.615 157.362 112.599V138.004C157.362 138.853 157.837 139.277 158.787 139.277C159.025 139.277 159.263 139.26 159.5 139.226C159.772 139.158 160.077 139.073 160.417 138.971V145.488C159.636 145.794 158.838 145.997 158.024 146.099C157.243 146.235 156.581 146.303 156.038 146.303Z" fill="white"/>
<path d="M108.893 145.742V120.643H116.632V127.516H115.716C115.749 126.091 116.106 124.818 116.785 123.698C117.497 122.578 118.397 121.695 119.483 121.051C120.603 120.406 121.757 120.083 122.945 120.083C123.827 120.083 124.659 120.219 125.44 120.491C126.254 120.728 127.103 121.135 127.985 121.712L124.32 128.636C123.98 128.399 123.505 128.195 122.894 128.025C122.283 127.822 121.672 127.72 121.061 127.72C120.484 127.72 119.924 127.822 119.381 128.025C118.872 128.229 118.414 128.551 118.007 128.993C117.633 129.4 117.328 129.926 117.09 130.571C116.92 131.046 116.785 131.657 116.683 132.404C116.615 133.117 116.581 134.186 116.581 135.611V145.742H108.893Z" fill="white"/>
<path d="M94.435 146.303C92.127 146.303 90.1584 145.946 88.5293 145.233C86.9001 144.487 85.5764 143.502 84.5582 142.281C83.54 141.025 82.7933 139.633 82.3181 138.106C81.8769 136.545 81.6562 134.949 81.6562 133.32C81.6562 131.759 81.8769 130.198 82.3181 128.636C82.7933 127.075 83.506 125.65 84.4564 124.36C85.4406 123.07 86.7134 122.035 88.2747 121.254C89.8699 120.474 91.7876 120.083 94.0277 120.083C95.9962 120.083 97.7272 120.423 99.2206 121.101C100.714 121.746 101.953 122.663 102.937 123.851C103.955 125.039 104.719 126.447 105.228 128.076C105.737 129.705 105.992 131.487 105.992 133.422C105.992 133.761 105.975 134.118 105.941 134.491C105.941 134.864 105.907 135.323 105.839 135.866H89.3438C89.5475 137.223 90.1754 138.208 91.2276 138.819C92.3137 139.43 93.5525 139.735 94.9441 139.735C96.1659 139.735 97.4217 139.531 98.7115 139.124C100.001 138.683 101.121 138.089 102.072 137.342L105.33 142.739C104.006 143.621 102.801 144.334 101.715 144.877C100.629 145.386 99.5091 145.742 98.3551 145.946C97.2351 146.184 95.9283 146.303 94.435 146.303ZM98.4569 132.047C98.5248 131.776 98.5757 131.504 98.6097 131.233C98.6776 130.961 98.7115 130.707 98.7115 130.469C98.7115 129.824 98.5927 129.264 98.3551 128.789C98.1175 128.28 97.7781 127.856 97.3369 127.516C96.9296 127.177 96.4544 126.922 95.9114 126.753C95.3683 126.549 94.7913 126.447 94.1804 126.447C93.0604 126.447 92.144 126.651 91.4312 127.058C90.7524 127.465 90.2433 127.958 89.9039 128.535C89.5645 129.112 89.3438 129.672 89.242 130.215H101.002L98.4569 132.047Z" fill="white"/>
<path d="M65.649 145.743L55.4159 120.643H63.8162L68.7546 135.713L73.8457 120.643H82.0934L71.9111 145.743H65.649Z" fill="white"/>
<path d="M42.9527 146.303C40.475 146.303 38.2519 145.742 36.2833 144.622C34.3487 143.468 32.8214 141.907 31.7013 139.939C30.5813 137.936 30.0212 135.679 30.0212 133.167C30.0212 130.622 30.5813 128.365 31.7013 126.396C32.8214 124.428 34.3487 122.883 36.2833 121.763C38.2519 120.643 40.475 120.083 42.9527 120.083C45.4304 120.083 47.6365 120.643 49.5711 121.763C51.5058 122.883 53.0331 124.428 54.1531 126.396C55.2732 128.365 55.8332 130.622 55.8332 133.167C55.8332 135.679 55.2732 137.936 54.1531 139.939C53.0331 141.907 51.5058 143.468 49.5711 144.622C47.6365 145.742 45.4304 146.303 42.9527 146.303ZM42.9527 139.582C44.0727 139.582 45.0231 139.345 45.8037 138.869C46.5843 138.36 47.1613 137.631 47.5347 136.68C47.942 135.696 48.1456 134.525 48.1456 133.167C48.1456 131.776 47.942 130.622 47.5347 129.705C47.1613 128.755 46.5843 128.042 45.8037 127.567C45.0231 127.058 44.0727 126.804 42.9527 126.804C41.8326 126.804 40.8823 127.058 40.1017 127.567C39.321 128.042 38.7271 128.755 38.3198 129.705C37.9125 130.622 37.7088 131.776 37.7088 133.167C37.7088 134.525 37.9125 135.696 38.3198 136.68C38.7271 137.631 39.321 138.36 40.1017 138.869C40.8823 139.345 41.8326 139.582 42.9527 139.582Z" fill="white"/>
</g>
<defs>
<filter id="filter0_f_236_39864" x="-199.965" y="-105.897" width="684.381" height="821.889" filterUnits="userSpaceOnUse" color-interpolation-filters="sRGB">
<feFlood flood-opacity="0" result="BackgroundImageFix"/>
<feBlend mode="normal" in="SourceGraphic" in2="BackgroundImageFix" result="shape"/>
<feGaussianBlur stdDeviation="45.0458" result="effect1_foregroundBlur_236_39864"/>
</filter>
<filter id="filter1_f_236_39864" x="-203.917" y="-142.25" width="664.978" height="882.022" filterUnits="userSpaceOnUse" color-interpolation-filters="sRGB">
<feFlood flood-opacity="0" result="BackgroundImageFix"/>
<feBlend mode="normal" in="SourceGraphic" in2="BackgroundImageFix" result="shape"/>
<feGaussianBlur stdDeviation="74.2861" result="effect1_foregroundBlur_236_39864"/>
</filter>
<filter id="filter2_f_236_39864" x="-147.017" y="-58.4807" width="545.292" height="732.588" filterUnits="userSpaceOnUse" color-interpolation-filters="sRGB">
<feFlood flood-opacity="0" result="BackgroundImageFix"/>
<feBlend mode="normal" in="SourceGraphic" in2="BackgroundImageFix" result="shape"/>
<feGaussianBlur stdDeviation="56.9" result="effect1_foregroundBlur_236_39864"/>
</filter>
<linearGradient id="paint0_linear_236_39864" x1="-109.874" y1="305.047" x2="394.324" y2="305.047" gradientUnits="userSpaceOnUse">
<stop stop-color="#5360F9"/>
<stop offset="1" stop-color="#852BEC"/>
</linearGradient>
<linearGradient id="paint1_linear_236_39864" x1="-55.3445" y1="298.761" x2="312.489" y2="298.761" gradientUnits="userSpaceOnUse">
<stop stop-color="#5360F9"/>
<stop offset="1" stop-color="#852BEC"/>
</linearGradient>
<linearGradient id="paint2_linear_236_39864" x1="-33.2167" y1="307.813" x2="284.475" y2="307.813" gradientUnits="userSpaceOnUse">
<stop stop-color="#5360F9"/>
<stop offset="1" stop-color="#852BEC"/>
</linearGradient>
<clipPath id="clip0_236_39864">
<rect width="256" height="256" fill="white"/>
</clipPath>
<clipPath id="clip1_236_39864">
<rect width="1138" height="711.25" fill="white" transform="translate(-441)"/>
</clipPath>
<clipPath id="clip2_236_39864">
<rect width="1138" height="729.426" fill="white" transform="translate(-441 3.95142)"/>
</clipPath>
</defs>
</svg>
