<svg width="139" height="37" viewBox="-5 -5 149 47" fill="none" xmlns="http://www.w3.org/2000/svg">

    <rect x="-5" y="-5" rx="3" ry="3" width="149" height="47" fill="white" />
    <g clip-path="url(#clip0_4004_1232)">
        <path
            d="M24.9959 27.6469V21.4789C24.9959 21.1665 24.7432 20.9138 24.4308 20.9138H19.9466C19.6342 20.9138 19.3815 21.1665 19.3815 21.4789V24.2286C19.3815 25.182 19.2023 26.0825 18.8462 26.9325C18.4879 27.7847 18.0031 28.5153 17.3921 29.1263C16.781 29.7397 16.0574 30.2244 15.2235 30.5805C14.3896 30.9365 13.4822 31.1157 12.4944 31.1157C11.5066 31.1157 10.6498 30.9365 9.81816 30.5805C8.98427 30.2244 8.25375 29.7397 7.62432 29.1263C6.99488 28.5153 6.50098 27.7847 6.14491 26.9325C5.78654 26.0825 5.60966 25.182 5.60966 24.2286C5.60966 23.2753 5.78654 22.3334 6.14491 21.4996C6.50098 20.668 6.99488 19.9443 7.62432 19.3333C8.25375 18.7199 8.98427 18.2352 9.81816 17.8791C10.6498 17.5231 11.5434 17.3439 12.4944 17.3439H24.4285C24.7409 17.3439 24.9936 17.0912 24.9936 16.7788V12.2946C24.9936 11.9822 24.7409 11.7295 24.4285 11.7295H12.4944C10.76 11.7295 9.12899 12.0534 7.59905 12.6989C6.0691 13.3467 4.74131 14.2289 3.62027 15.3522C2.49693 16.4732 1.6125 17.7918 0.966984 19.3057C0.321466 20.8196 -0.00244141 22.4598 -0.00244141 24.2263C-0.00244141 25.9929 0.321466 27.5941 0.966984 29.124C1.6125 30.654 2.49693 31.9818 3.62027 33.1028C4.74131 34.2261 6.0691 35.1106 7.59905 35.7561C9.12899 36.4016 10.76 36.7255 12.4944 36.7255C14.2288 36.7255 15.8369 36.4177 17.3163 35.8066C18.6096 35.2737 19.7651 34.5569 20.7828 33.6587C21.0194 33.4497 21.3778 33.4841 21.5845 33.723C23.2316 35.6228 25.6414 36.1374 27.9823 36.204C28.3016 36.2132 28.5634 35.9582 28.5634 35.6389V31.1479C28.5634 30.8492 28.3291 30.6057 28.0282 30.585C25.6873 30.4219 24.9936 29.1631 24.9936 27.6469H24.9959Z"
            fill="#151516" />
        <path
            d="M54.5932 11.7319H49.1695C48.9788 11.7319 48.8019 11.8284 48.6985 11.9869L43.879 19.3288C43.6561 19.6688 43.1576 19.6688 42.9348 19.3288L38.1153 11.9869C38.0119 11.8284 37.8327 11.7319 37.6443 11.7319H32.2229C31.7612 11.7319 31.4947 12.2557 31.7658 12.6278L39.4936 23.2364C39.6383 23.434 39.6383 23.7004 39.4936 23.898L31.2466 35.3221C30.9778 35.6942 31.2443 36.2157 31.7037 36.2157H37.1321C37.3204 36.2157 37.4973 36.1215 37.603 35.963L42.9325 27.8974C43.1554 27.5598 43.6516 27.5598 43.8744 27.8974L49.2039 35.963C49.3073 36.1215 49.4842 36.2157 49.6749 36.2157H55.1055C55.5649 36.2157 55.8314 35.6942 55.5626 35.3221L47.3156 23.898C47.1732 23.7004 47.1732 23.434 47.3156 23.2364L55.0434 12.6278C55.3145 12.2557 55.048 11.7319 54.5863 11.7319H54.5932Z"
            fill="#151516" />
        <path
            d="M62.3326 0C61.3126 0 60.4626 0.339988 59.7827 1.01996C59.1027 1.70224 58.7627 2.54991 58.7627 3.56988C58.7627 4.58984 59.1027 5.44211 59.7827 6.12208C60.4626 6.80206 61.3126 7.14205 62.3326 7.14205C63.3525 7.14205 64.2025 6.80206 64.8848 6.12208C65.5648 5.44211 65.9047 4.59214 65.9047 3.56988C65.9047 2.54761 65.5648 1.70224 64.8848 1.01996C64.2025 0.339988 63.3525 0 62.3326 0Z"
            fill="#151516" />
        <path
            d="M64.5748 11.7319H60.0929C59.7808 11.7319 59.5278 11.9849 59.5278 12.297V35.6529C59.5278 35.965 59.7808 36.218 60.0929 36.218H64.5748C64.8869 36.218 65.1399 35.965 65.1399 35.6529V12.297C65.1399 11.9849 64.8869 11.7319 64.5748 11.7319Z"
            fill="#151516" />
        <path
            d="M92.2012 14.8952C91.0434 13.7397 89.6926 12.8369 88.1443 12.1913C86.596 11.5458 84.9236 11.2219 83.1203 11.2219C81.317 11.2219 79.6859 11.5458 78.1215 12.1913C76.5571 12.8369 75.2064 13.7397 74.067 14.8952C73.2216 15.7543 72.5048 16.7215 71.9214 17.7943C71.7192 18.1664 71.9972 18.619 72.4221 18.619H78.0963C78.2341 18.619 78.3628 18.5661 78.4661 18.4765C78.9991 18.0171 79.6078 17.6472 80.2878 17.3693C81.1539 17.0109 82.098 16.834 83.118 16.834C84.138 16.834 85.0821 17.0109 85.9482 17.3693C86.8165 17.7253 87.5723 18.2284 88.2201 18.874C88.8656 19.5195 89.3664 20.2776 89.7248 21.1436C90.0808 22.012 90.26 22.9538 90.26 23.9738C90.26 24.9937 90.0808 25.9379 89.7248 26.8062C89.3664 27.6723 88.8656 28.4212 88.2201 29.0506C87.5723 29.6801 86.8165 30.1809 85.9482 30.5553C85.0821 30.9297 84.138 31.1158 83.118 31.1158C82.098 31.1158 81.1539 30.9297 80.2878 30.5553C79.8766 30.3761 79.4907 30.1717 79.1323 29.9351C79.0404 29.873 78.9325 29.8409 78.8222 29.8409H72.7231C72.2797 29.8409 72.0132 30.3256 72.243 30.7023C72.7621 31.5569 73.3686 32.331 74.0647 33.0294C75.2041 34.1688 76.5548 35.0693 78.1192 35.7332C79.6836 36.3948 81.3491 36.7279 83.118 36.7279C84.8868 36.7279 86.5937 36.3948 88.142 35.7332C89.6903 35.0693 91.0411 34.1688 92.1989 33.0294C93.3544 31.89 94.2549 30.5392 94.9004 28.9725C95.5459 27.4104 95.8698 25.7426 95.8698 23.9738C95.8698 22.2049 95.5459 20.4981 94.9004 18.9498C94.2549 17.4037 93.3544 16.0507 92.1989 14.8952H92.2012Z"
            fill="#151516" />
        <path
            d="M138.159 18.0056C137.599 16.6135 136.806 15.4143 135.786 14.4105C134.766 13.4089 133.56 12.6255 132.166 12.065C130.771 11.5022 129.239 11.2219 127.574 11.2219C125.77 11.2219 124.139 11.5458 122.678 12.1913C121.397 12.7565 120.271 13.5191 119.304 14.4771C119.081 14.6976 118.727 14.693 118.507 14.4725C117.567 13.5168 116.457 12.7565 115.178 12.1913C113.717 11.5458 112.084 11.2219 110.283 11.2219C108.615 11.2219 107.085 11.5022 105.69 12.065C104.296 12.6255 103.09 13.4089 102.07 14.4105C101.05 15.4143 100.251 16.6135 99.6717 18.0056C99.0928 19.4023 98.8057 20.9139 98.8057 22.5472V35.6528C98.8057 35.9652 99.0584 36.2179 99.3708 36.2179H103.853C104.165 36.2179 104.418 35.9652 104.418 35.6528V22.5472C104.418 20.8128 104.953 19.4276 106.026 18.3892C107.096 17.3532 108.516 16.834 110.285 16.834C112.054 16.834 113.464 17.3532 114.519 18.3892C115.571 19.4276 116.099 20.8128 116.099 22.5472V35.6528C116.099 35.9652 116.352 36.2179 116.664 36.2179H121.148C121.461 36.2179 121.714 35.9652 121.714 35.6528V22.5472C121.714 20.8128 122.249 19.4276 123.319 18.3892C124.39 17.3532 125.809 16.834 127.578 16.834C129.347 16.834 130.758 17.3532 131.812 18.3892C132.866 19.4276 133.395 20.8128 133.395 22.5472V35.6528C133.395 35.9652 133.648 36.2179 133.96 36.2179H138.442C138.754 36.2179 139.007 35.9652 139.007 35.6528V22.5472C139.007 20.9139 138.727 19.4023 138.166 18.0056H138.159Z"
            fill="#151516" />
        <path
            d="M82.5553 21.4238H68.4274C68.1153 21.4238 67.8623 21.6768 67.8623 21.9889V26.4708C67.8623 26.7829 68.1153 27.0359 68.4274 27.0359H82.5553C82.8674 27.0359 83.1204 26.7829 83.1204 26.4708V21.9889C83.1204 21.6768 82.8674 21.4238 82.5553 21.4238Z"
            fill="#151516" />
    </g>
</svg>
    